<?xml version="1.0" standalone="yes"?>
<!-- SVG graphic -->
<svg xmlns='http://www.w3.org/2000/svg' xmlns:xlink='http://www.w3.org/1999/xlink'
 version="1.1">
<rect x="0" y="0" width="6" height="200" stroke="black" stroke-width="1" fill="blue" tooltip="enable"><title>(0,131440)</title></rect><rect x="6" y="121.272" width="6" height="78.7279" stroke="black" stroke-width="1" fill="blue" tooltip="enable"><title>(0.0381034,51740)</title></rect><rect x="12" y="135.785" width="6" height="64.2149" stroke="black" stroke-width="1" fill="blue" tooltip="enable"><title>(0.0762069,42202)</title></rect><rect x="18" y="144.264" width="6" height="55.7365" stroke="black" stroke-width="1" fill="blue" tooltip="enable"><title>(0.11431,36630)</title></rect><rect x="24" y="152.4" width="6" height="47.6004" stroke="black" stroke-width="1" fill="blue" tooltip="enable"><title>(0.152414,31283)</title></rect><rect x="30" y="159.429" width="6" height="40.5706" stroke="black" stroke-width="1" fill="blue" tooltip="enable"><title>(0.190517,26663)</title></rect><rect x="36" y="166.073" width="6" height="33.9273" stroke="black" stroke-width="1" fill="blue" tooltip="enable"><title>(0.228621,22297)</title></rect><rect x="42" y="171.931" width="6" height="28.0691" stroke="black" stroke-width="1" fill="blue" tooltip="enable"><title>(0.266724,18447)</title></rect><rect x="48" y="176.201" width="6" height="23.7995" stroke="black" stroke-width="1" fill="blue" tooltip="enable"><title>(0.304828,15641)</title></rect><rect x="54" y="180.009" width="6" height="19.9909" stroke="black" stroke-width="1" fill="blue" tooltip="enable"><title>(0.342931,13138)</title></rect><rect x="60" y="183.163" width="6" height="16.8366" stroke="black" stroke-width="1" fill="blue" tooltip="enable"><title>(0.381034,11065)</title></rect><rect x="66" y="186.19" width="6" height="13.8101" stroke="black" stroke-width="1" fill="blue" tooltip="enable"><title>(0.419138,9076)</title></rect><rect x="72" y="188.299" width="6" height="11.7012" stroke="black" stroke-width="1" fill="blue" tooltip="enable"><title>(0.457241,7690)</title></rect><rect x="78" y="190.067" width="6" height="9.93305" stroke="black" stroke-width="1" fill="blue" tooltip="enable"><title>(0.495345,6528)</title></rect><rect x="84" y="192.005" width="6" height="7.99452" stroke="black" stroke-width="1" fill="blue" tooltip="enable"><title>(0.533448,5254)</title></rect><rect x="90" y="193.046" width="6" height="6.95374" stroke="black" stroke-width="1" fill="blue" tooltip="enable"><title>(0.571552,4570)</title></rect><rect x="96" y="193.984" width="6" height="6.01643" stroke="black" stroke-width="1" fill="blue" tooltip="enable"><title>(0.609655,3954)</title></rect><rect x="102" y="195.075" width="6" height="4.92544" stroke="black" stroke-width="1" fill="blue" tooltip="enable"><title>(0.647759,3237)</title></rect><rect x="108" y="195.942" width="6" height="4.05813" stroke="black" stroke-width="1" fill="blue" tooltip="enable"><title>(0.685862,2667)</title></rect><rect x="114" y="196.534" width="6" height="3.46622" stroke="black" stroke-width="1" fill="blue" tooltip="enable"><title>(0.723965,2278)</title></rect><rect x="120" y="196.905" width="6" height="3.09495" stroke="black" stroke-width="1" fill="blue" tooltip="enable"><title>(0.762069,2034)</title></rect><rect x="126" y="197.565" width="6" height="2.43457" stroke="black" stroke-width="1" fill="blue" tooltip="enable"><title>(0.800172,1600)</title></rect><rect x="132" y="197.801" width="6" height="2.19872" stroke="black" stroke-width="1" fill="blue" tooltip="enable"><title>(0.838276,1445)</title></rect><rect x="138" y="198.186" width="6" height="1.81376" stroke="black" stroke-width="1" fill="blue" tooltip="enable"><title>(0.876379,1192)</title></rect><rect x="144" y="198.433" width="6" height="1.56726" stroke="black" stroke-width="1" fill="blue" tooltip="enable"><title>(0.914483,1030)</title></rect><rect x="150" y="198.67" width="6" height="1.32988" stroke="black" stroke-width="1" fill="blue" tooltip="enable"><title>(0.952586,874)</title></rect><rect x="156" y="198.93" width="6" height="1.06969" stroke="black" stroke-width="1" fill="blue" tooltip="enable"><title>(0.99069,703)</title></rect><rect x="162" y="199.002" width="6" height="0.998174" stroke="black" stroke-width="1" fill="blue" tooltip="enable"><title>(1.02879,656)</title></rect><rect x="168" y="199.226" width="6" height="0.774498" stroke="black" stroke-width="1" fill="blue" tooltip="enable"><title>(1.0669,509)</title></rect><rect x="174" y="199.317" width="6" height="0.683201" stroke="black" stroke-width="1" fill="blue" tooltip="enable"><title>(1.105,449)</title></rect><rect x="180" y="199.361" width="6" height="0.639075" stroke="black" stroke-width="1" fill="blue" tooltip="enable"><title>(1.1431,420)</title></rect><rect x="186" y="199.48" width="6" height="0.52039" stroke="black" stroke-width="1" fill="blue" tooltip="enable"><title>(1.18121,342)</title></rect><rect x="192" y="199.509" width="6" height="0.491479" stroke="black" stroke-width="1" fill="blue" tooltip="enable"><title>(1.21931,323)</title></rect><rect x="198" y="199.583" width="6" height="0.41692" stroke="black" stroke-width="1" fill="blue" tooltip="enable"><title>(1.25741,274)</title></rect><rect x="204" y="199.655" width="6" height="0.345405" stroke="black" stroke-width="1" fill="blue" tooltip="enable"><title>(1.29552,227)</title></rect><rect x="210" y="199.694" width="6" height="0.305843" stroke="black" stroke-width="1" fill="blue" tooltip="enable"><title>(1.33362,201)</title></rect><rect x="216" y="199.714" width="6" height="0.286062" stroke="black" stroke-width="1" fill="blue" tooltip="enable"><title>(1.37172,188)</title></rect><rect x="222" y="199.758" width="6" height="0.241935" stroke="black" stroke-width="1" fill="blue" tooltip="enable"><title>(1.40983,159)</title></rect><rect x="228" y="199.775" width="6" height="0.225198" stroke="black" stroke-width="1" fill="blue" tooltip="enable"><title>(1.44793,148)</title></rect><rect x="234" y="199.799" width="6" height="0.200852" stroke="black" stroke-width="1" fill="blue" tooltip="enable"><title>(1.48603,132)</title></rect><rect x="240" y="199.84" width="6" height="0.159769" stroke="black" stroke-width="1" fill="blue" tooltip="enable"><title>(1.52414,105)</title></rect><rect x="246" y="199.848" width="6" height="0.152161" stroke="black" stroke-width="1" fill="blue" tooltip="enable"><title>(1.56224,100)</title></rect><rect x="252" y="199.858" width="6" height="0.141509" stroke="black" stroke-width="1" fill="blue" tooltip="enable"><title>(1.60034,93)</title></rect><rect x="258" y="199.907" width="6" height="0.092818" stroke="black" stroke-width="1" fill="blue" tooltip="enable"><title>(1.63845,61)</title></rect><rect x="264" y="199.915" width="6" height="0.08521" stroke="black" stroke-width="1" fill="blue" tooltip="enable"><title>(1.67655,56)</title></rect><rect x="270" y="199.909" width="6" height="0.0912964" stroke="black" stroke-width="1" fill="blue" tooltip="enable"><title>(1.71465,60)</title></rect><rect x="276" y="199.915" width="6" height="0.08521" stroke="black" stroke-width="1" fill="blue" tooltip="enable"><title>(1.75276,56)</title></rect><rect x="282" y="199.906" width="6" height="0.0943396" stroke="black" stroke-width="1" fill="blue" tooltip="enable"><title>(1.79086,62)</title></rect><rect x="288" y="199.942" width="6" height="0.0578211" stroke="black" stroke-width="1" fill="blue" tooltip="enable"><title>(1.82897,38)</title></rect><rect x="294" y="199.938" width="6" height="0.0623859" stroke="black" stroke-width="1" fill="blue" tooltip="enable"><title>(1.86707,41)</title></rect><rect x="300" y="199.945" width="6" height="0.0547778" stroke="black" stroke-width="1" fill="blue" tooltip="enable"><title>(1.90517,36)</title></rect><rect x="306" y="199.956" width="6" height="0.0441266" stroke="black" stroke-width="1" fill="blue" tooltip="enable"><title>(1.94328,29)</title></rect><rect x="312" y="199.951" width="6" height="0.0486914" stroke="black" stroke-width="1" fill="blue" tooltip="enable"><title>(1.98138,32)</title></rect><rect x="318" y="199.97" width="6" height="0.0304321" stroke="black" stroke-width="1" fill="blue" tooltip="enable"><title>(2.01948,20)</title></rect><rect x="324" y="199.967" width="6" height="0.0334754" stroke="black" stroke-width="1" fill="blue" tooltip="enable"><title>(2.05759,22)</title></rect><rect x="330" y="199.973" width="6" height="0.0273889" stroke="black" stroke-width="1" fill="blue" tooltip="enable"><title>(2.09569,18)</title></rect><rect x="336" y="199.976" width="6" height="0.0243457" stroke="black" stroke-width="1" fill="blue" tooltip="enable"><title>(2.13379,16)</title></rect><rect x="342" y="199.982" width="6" height="0.0182593" stroke="black" stroke-width="1" fill="blue" tooltip="enable"><title>(2.1719,12)</title></rect><rect x="348" y="199.979" width="6" height="0.0213025" stroke="black" stroke-width="1" fill="blue" tooltip="enable"><title>(2.21,14)</title></rect><rect x="354" y="199.976" width="6" height="0.0243457" stroke="black" stroke-width="1" fill="blue" tooltip="enable"><title>(2.2481,16)</title></rect><rect x="360" y="199.982" width="6" height="0.0182593" stroke="black" stroke-width="1" fill="blue" tooltip="enable"><title>(2.28621,12)</title></rect><rect x="366" y="199.985" width="6" height="0.0152161" stroke="black" stroke-width="1" fill="blue" tooltip="enable"><title>(2.32431,10)</title></rect><rect x="372" y="199.98" width="6" height="0.0197809" stroke="black" stroke-width="1" fill="blue" tooltip="enable"><title>(2.36241,13)</title></rect><rect x="378" y="199.992" width="6" height="0.00760803" stroke="black" stroke-width="1" fill="blue" tooltip="enable"><title>(2.40052,5)</title></rect><rect x="384" y="199.994" width="6" height="0.00608643" stroke="black" stroke-width="1" fill="blue" tooltip="enable"><title>(2.43862,4)</title></rect><rect x="390" y="199.997" width="6" height="0.00304321" stroke="black" stroke-width="1" fill="blue" tooltip="enable"><title>(2.47672,2)</title></rect><rect x="396" y="199.995" width="6" height="0.00456482" stroke="black" stroke-width="1" fill="blue" tooltip="enable"><title>(2.51483,3)</title></rect><rect x="402" y="199.995" width="6" height="0.00456482" stroke="black" stroke-width="1" fill="blue" tooltip="enable"><title>(2.55293,3)</title></rect><rect x="408" y="199.994" width="6" height="0.00608643" stroke="black" stroke-width="1" fill="blue" tooltip="enable"><title>(2.59103,4)</title></rect><rect x="414" y="199.995" width="6" height="0.00456482" stroke="black" stroke-width="1" fill="blue" tooltip="enable"><title>(2.62914,3)</title></rect><rect x="420" y="199.994" width="6" height="0.00608643" stroke="black" stroke-width="1" fill="blue" tooltip="enable"><title>(2.66724,4)</title></rect><rect x="426" y="199.997" width="6" height="0.00304321" stroke="black" stroke-width="1" fill="blue" tooltip="enable"><title>(2.70534,2)</title></rect><rect x="432" y="199.998" width="6" height="0.00152161" stroke="black" stroke-width="1" fill="blue" tooltip="enable"><title>(2.74345,1)</title></rect><rect x="438" y="199.997" width="6" height="0.00304321" stroke="black" stroke-width="1" fill="blue" tooltip="enable"><title>(2.78155,2)</title></rect><rect x="444" y="199.998" width="6" height="0.00152161" stroke="black" stroke-width="1" fill="blue" tooltip="enable"><title>(2.81965,1)</title></rect><rect x="450" y="199.998" width="6" height="0.00152161" stroke="black" stroke-width="1" fill="blue" tooltip="enable"><title>(2.85776,1)</title></rect><rect x="456" y="199.998" width="6" height="0.00152161" stroke="black" stroke-width="1" fill="blue" tooltip="enable"><title>(2.89586,1)</title></rect><rect x="462" y="199.997" width="6" height="0.00304321" stroke="black" stroke-width="1" fill="blue" tooltip="enable"><title>(2.93397,2)</title></rect><rect x="468" y="199.995" width="6" height="0.00456482" stroke="black" stroke-width="1" fill="blue" tooltip="enable"><title>(2.97207,3)</title></rect><rect x="474" y="199.997" width="6" height="0.00304321" stroke="black" stroke-width="1" fill="blue" tooltip="enable"><title>(3.01017,2)</title></rect><rect x="480" y="200" width="6" height="0" stroke="black" stroke-width="1" fill="blue" tooltip="enable"><title>(3.04828,0)</title></rect><rect x="486" y="199.997" width="6" height="0.00304321" stroke="black" stroke-width="1" fill="blue" tooltip="enable"><title>(3.08638,2)</title></rect><rect x="492" y="200" width="6" height="0" stroke="black" stroke-width="1" fill="blue" tooltip="enable"><title>(3.12448,0)</title></rect><rect x="498" y="200" width="6" height="0" stroke="black" stroke-width="1" fill="blue" tooltip="enable"><title>(3.16259,0)</title></rect><rect x="504" y="199.992" width="6" height="0.00760803" stroke="black" stroke-width="1" fill="blue" tooltip="enable"><title>(3.20069,5)</title></rect><rect x="510" y="199.998" width="6" height="0.00152161" stroke="black" stroke-width="1" fill="blue" tooltip="enable"><title>(3.23879,1)</title></rect><rect x="516" y="200" width="6" height="0" stroke="black" stroke-width="1" fill="blue" tooltip="enable"><title>(3.2769,0)</title></rect><rect x="522" y="199.997" width="6" height="0.00304321" stroke="black" stroke-width="1" fill="blue" tooltip="enable"><title>(3.315,2)</title></rect><rect x="528" y="199.998" width="6" height="0.00152161" stroke="black" stroke-width="1" fill="blue" tooltip="enable"><title>(3.3531,1)</title></rect><rect x="534" y="200" width="6" height="0" stroke="black" stroke-width="1" fill="blue" tooltip="enable"><title>(3.39121,0)</title></rect><rect x="540" y="200" width="6" height="0" stroke="black" stroke-width="1" fill="blue" tooltip="enable"><title>(3.42931,0)</title></rect><rect x="546" y="200" width="6" height="0" stroke="black" stroke-width="1" fill="blue" tooltip="enable"><title>(3.46741,0)</title></rect><rect x="552" y="199.997" width="6" height="0.00304321" stroke="black" stroke-width="1" fill="blue" tooltip="enable"><title>(3.50552,2)</title></rect><rect x="558" y="200" width="6" height="0" stroke="black" stroke-width="1" fill="blue" tooltip="enable"><title>(3.54362,0)</title></rect><rect x="564" y="200" width="6" height="0" stroke="black" stroke-width="1" fill="blue" tooltip="enable"><title>(3.58172,0)</title></rect><rect x="570" y="200" width="6" height="0" stroke="black" stroke-width="1" fill="blue" tooltip="enable"><title>(3.61983,0)</title></rect><rect x="576" y="200" width="6" height="0" stroke="black" stroke-width="1" fill="blue" tooltip="enable"><title>(3.65793,0)</title></rect><rect x="582" y="200" width="6" height="0" stroke="black" stroke-width="1" fill="blue" tooltip="enable"><title>(3.69603,0)</title></rect><rect x="588" y="200" width="6" height="0" stroke="black" stroke-width="1" fill="blue" tooltip="enable"><title>(3.73414,0)</title></rect><rect x="594" y="199.998" width="6" height="0.00152161" stroke="black" stroke-width="1" fill="blue" tooltip="enable"><title>(3.77224,1)</title></rect><text x="30" y="240" font-size="20" fill="black">0</text>
<text x="600" y="240" font-size="20" fill="black">3.81034</text>
<polyline points="0,220,600,220" stroke="black" stroke-width="1" fill="none"/>
<text x="720" y="20" font-size="20" fill="black">131440</text>
<text x="720" y="200" font-size="20" fill="black">0</text>
<polyline points="660,0,660,200" stroke="black" stroke-width="1" fill="none"/>
</svg>